<svg width="23" height="20" viewBox="0 0 23 20" fill="none" xmlns="http://www.w3.org/2000/svg">
<g clip-path="url(#clip0_625_578)">
<path d="M20.3047 2.08352e-06H2.69531C1.98047 2.08352e-06 1.29491 0.246932 0.789439 0.686471C0.28397 1.12601 0 1.72215 0 2.34375L0 12.4328C0 13.0544 0.28397 13.6506 0.789439 14.0901C1.29491 14.5296 1.98047 14.7766 2.69531 14.7766H6.87844C6.92609 14.7766 6.9718 14.793 7.0055 14.8223C7.03919 14.8516 7.05812 14.8914 7.05812 14.9328V18.9063C7.05811 19.1226 7.13187 19.3341 7.27008 19.5139C7.40828 19.6938 7.60473 19.834 7.83458 19.9168C8.06443 19.9996 8.31735 20.0213 8.56135 19.9791C8.80535 19.9369 9.02948 19.8327 9.20539 19.6797L14.7901 14.8234C14.8069 14.809 14.8268 14.7975 14.8487 14.7897C14.8706 14.7819 14.894 14.778 14.9177 14.7781H20.3083C21.0231 14.7781 21.7087 14.5312 22.2142 14.0917C22.7196 13.6521 23.0036 13.056 23.0036 12.4344V2.34375C23.0036 2.0357 22.9338 1.73068 22.7981 1.44612C22.6624 1.16155 22.4635 0.903043 22.2129 0.685365C21.9622 0.467687 21.6647 0.295112 21.3372 0.177512C21.0098 0.0599112 20.6589 -0.000408648 20.3047 2.08352e-06ZM21.9219 12.4328C21.9219 12.8058 21.7515 13.1635 21.4482 13.4272C21.1449 13.6909 20.7336 13.8391 20.3047 13.8391H14.9141C14.5817 13.837 14.262 13.9493 14.0246 14.1516L8.44531 19.0156C8.42018 19.0377 8.38807 19.0527 8.35307 19.0588C8.31808 19.0649 8.28179 19.0618 8.24883 19.0499C8.21586 19.038 8.18772 19.0178 8.16799 18.992C8.14826 18.9661 8.13784 18.9357 8.13805 18.9047V14.9328C8.13805 14.6427 8.00553 14.3645 7.76964 14.1594C7.53376 13.9543 7.21383 13.8391 6.88023 13.8391H2.69531C2.26641 13.8391 1.85507 13.6909 1.55179 13.4272C1.24851 13.1635 1.07812 12.8058 1.07812 12.4328V2.34375C1.07812 1.97079 1.24851 1.61311 1.55179 1.34938C1.85507 1.08566 2.26641 0.937502 2.69531 0.937502H20.3047C20.7336 0.937502 21.1449 1.08566 21.4482 1.34938C21.7515 1.61311 21.9219 1.97079 21.9219 2.34375V12.4328Z" fill="black"/>
</g>
<defs>
<clipPath id="clip0_625_578">
<rect width="23" height="20" fill="white"/>
</clipPath>
</defs>
</svg>
