<svg width="20" height="20" viewBox="0 0 20 20" fill="none" xmlns="http://www.w3.org/2000/svg">
<path d="M16.25 13.1896C15.05 13.1896 13.975 13.7117 13.3 14.5062L7.225 11.3053C7.6 10.4654 7.6 9.53462 7.225 8.69467L13.3 5.49376C13.975 6.28831 15.05 6.81044 16.25 6.81044C18.325 6.81044 20 5.28944 20 3.40522C20 1.521 18.325 0 16.25 0C14.175 0 12.5 1.521 12.5 3.40522C12.5 3.85925 12.6 4.31328 12.775 4.69921L6.7 7.92282C6 7.12826 4.95 6.60613 3.75 6.60613C1.675 6.60613 0 8.12713 0 10.0114C0 11.8956 1.675 13.4166 3.75 13.4166C4.95 13.4166 6.025 12.8944 6.7 12.0999L12.775 15.3008C12.6 15.6867 12.5 16.1407 12.5 16.5948C12.5 18.479 14.175 20 16.25 20C18.325 20 20 18.479 20 16.5948C20 14.7106 18.325 13.1896 16.25 13.1896ZM16.25 0.930761C17.775 0.930761 19 2.04313 19 3.42792C19 4.81271 17.775 5.92509 16.25 5.92509C14.725 5.92509 13.5 4.81271 13.5 3.42792C13.5 2.04313 14.725 0.930761 16.25 0.930761ZM3.75 12.5085C2.225 12.5085 1 11.3961 1 10.0114C1 8.62656 2.225 7.51419 3.75 7.51419C5.275 7.51419 6.5 8.62656 6.5 10.0114C6.5 11.3961 5.275 12.5085 3.75 12.5085ZM16.25 19.0919C14.725 19.0919 13.5 17.9796 13.5 16.5948C13.5 15.21 14.725 14.0976 16.25 14.0976C17.775 14.0976 19 15.21 19 16.5948C19 17.9796 17.775 19.0919 16.25 19.0919Z" fill="black"/>
</svg>
